<svg xmlns="http://www.w3.org/2000/svg" viewBox="0 0 70 15.1"><defs><style>.cls-1{fill:#141414}.cls-2{fill:#f9be00}.cls-3{fill:#fff}</style></defs><g id="Calque_2" data-name="Calque 2"><g id="Calque_1-2" data-name="Calque 1"><path class="cls-1" d="M20.44 15v-.61a2.25 2.25 0 01-.75.52 2.63 2.63 0 01-1 .16 2.43 2.43 0 01-1.79-.62 2.19 2.19 0 01-.58-1.58 1.91 1.91 0 01.68-1.44 2.52 2.52 0 011.78-.57h1.66v-.35a1.06 1.06 0 00-.3-.84 1.53 1.53 0 00-1-.26 2 2 0 00-.77.13 1.69 1.69 0 00-.57.45l-1.17-1.1a2.72 2.72 0 011.06-.76 4.32 4.32 0 011.47-.21q3 0 3 2.48V15zm0-3H19q-1 0-1 .79a.73.73 0 00.26.59 1.15 1.15 0 00.76.22 2.49 2.49 0 00.65-.07 1.1 1.1 0 00.46-.27 1.2 1.2 0 00.26-.89zM27.48 14.52a3.64 3.64 0 01-2.14.59 6.16 6.16 0 01-1.68-.2 3 3 0 01-1.32-.81l1.15-1.15a2 2 0 00.87.53 3.7 3.7 0 001 .13 1.93 1.93 0 00.88-.18.62.62 0 00.19-1 1 1 0 00-.57-.2l-.54-.05-.57-.05a2.59 2.59 0 01-1.52-.57 1.79 1.79 0 01-.52-1.4 1.94 1.94 0 01.79-1.64 3.11 3.11 0 011.92-.59 5.68 5.68 0 011.58.18 2.71 2.71 0 011.14.63L27 9.84a1.63 1.63 0 00-.7-.36 3.75 3.75 0 00-.93-.11 1.21 1.21 0 00-.75.2.59.59 0 00-.25.48.57.57 0 00.15.4.89.89 0 00.57.21l.55.05.55.05a2.43 2.43 0 011.56.63 2 2 0 01.53 1.43 2 2 0 01-.84 1.7"/><path class="cls-1" d="M33.14 14.52a3.65 3.65 0 01-2.14.58 6.16 6.16 0 01-1.68-.2 3 3 0 01-1.32-.81l1.15-1.15a2 2 0 00.87.53 3.68 3.68 0 001 .13 1.94 1.94 0 00.88-.18.58.58 0 00.36-.55.57.57 0 00-.18-.44 1 1 0 00-.57-.2l-.51-.05-.57-.05a2.59 2.59 0 01-1.52-.57 1.79 1.79 0 01-.52-1.4 1.94 1.94 0 01.79-1.64 3.1 3.1 0 011.92-.59 5.67 5.67 0 011.54.19 2.71 2.71 0 011.14.63l-1.1 1.09a1.64 1.64 0 00-.7-.36 3.75 3.75 0 00-.98-.12 1.2 1.2 0 00-.75.2.59.59 0 00-.25.48.57.57 0 00.15.4.89.89 0 00.57.21l.55.05.55.05a2.43 2.43 0 011.56.63 2 2 0 01.62 1.43 2 2 0 01-.84 1.7M38.47 15v-.65a2.32 2.32 0 01-.8.54 2.49 2.49 0 01-1 .19 2.24 2.24 0 01-1.66-.62 2.2 2.2 0 01-.56-.89 3.62 3.62 0 01-.15-1.1V8h1.8v4.24a1.24 1.24 0 00.34 1 1.18 1.18 0 00.81.31 1.2 1.2 0 00.83-.31 1.24 1.24 0 00.34-1V8h1.75v7zM45 9.92a1.37 1.37 0 00-.42-.32 1.22 1.22 0 00-.58-.1 1.09 1.09 0 00-.79.34 1.28 1.28 0 00-.34 1V15h-1.73V8h1.71v.67a2.05 2.05 0 01.75-.54 2.47 2.47 0 011-.22 2.58 2.58 0 01.92.15 2.05 2.05 0 01.74.51z"/><path class="cls-1" d="M49.72 15v-.61a2.25 2.25 0 01-.75.52 2.63 2.63 0 01-1 .16 2.43 2.43 0 01-1.79-.62 2.19 2.19 0 01-.58-1.58 1.91 1.91 0 01.61-1.46 2.52 2.52 0 011.79-.55h1.66v-.35a1.06 1.06 0 00-.3-.84 1.53 1.53 0 00-1-.26 1.94 1.94 0 00-.77.13A1.67 1.67 0 0047 10l-1.09-1.11A2.72 2.72 0 0147 8.13a4.31 4.31 0 011.47-.21q3 0 3 2.48V15zm0-3H48.3q-1 0-1 .79a.73.73 0 00.26.59 1.14 1.14 0 00.75.22 2.5 2.5 0 00.65-.07 1.1 1.1 0 00.46-.27 1.21 1.21 0 00.26-.89zM56.39 15v-4.22a1.24 1.24 0 00-.34-1 1.17 1.17 0 00-.81-.31 1.19 1.19 0 00-.83.31 1.24 1.24 0 00-.34 1V15h-1.76V8H54v.65a2.33 2.33 0 01.79-.54 2.49 2.49 0 011-.19 2.24 2.24 0 011.66.62 2.19 2.19 0 01.56.89 3.64 3.64 0 01.16 1.1V15zM61.81 15.1a3.67 3.67 0 01-1.13-.17 2.76 2.76 0 01-1-.59 2.87 2.87 0 01-.74-1.12 4.75 4.75 0 01-.28-1.72 4.74 4.74 0 01.28-1.72 2.72 2.72 0 011.74-1.68 3.65 3.65 0 011.13-.17 3.43 3.43 0 011.29.23 2.89 2.89 0 011 .71l-1.18 1.19a2 2 0 00-.54-.42 1.31 1.31 0 00-.59-.13 1.23 1.23 0 00-1 .46 2.47 2.47 0 00-.39 1.55 2.49 2.49 0 00.39 1.56 1.23 1.23 0 001 .46 1.3 1.3 0 00.59-.13 2 2 0 00.54-.42l1.18 1.17a3.07 3.07 0 01-2.32 1"/><path class="cls-1" d="M65.61 12.06a1.57 1.57 0 00.39 1.13 1.48 1.48 0 001.12.43 2.19 2.19 0 00.9-.16 2.4 2.4 0 00.69-.51l1.06 1a4 4 0 01-1.17.84 3.72 3.72 0 01-1.5.26 4.24 4.24 0 01-1.25-.17 2.6 2.6 0 01-1.74-1.69 5 5 0 01-.26-1.73 3.85 3.85 0 01.83-2.64 3.12 3.12 0 014.47 0 3.55 3.55 0 01.85 2.46v.78zm2.62-1.6a1.84 1.84 0 00-.11-.36 1.2 1.2 0 00-.45-.53 1.44 1.44 0 00-1.45 0 1.19 1.19 0 00-.45.53 1.78 1.78 0 00-.12.36 2.94 2.94 0 000 .4h2.67a2.78 2.78 0 000-.4"/><rect class="cls-1" width="15.09" height="15.09" rx="2.11" ry="2.11"/><path class="cls-2" d="M18.2 4.14a1.58 1.58 0 00.41 1.13 1.48 1.48 0 001.13.43 2.18 2.18 0 00.89-.16 2.41 2.41 0 00.7-.51l1.06 1a3.94 3.94 0 01-1.17.84 3.71 3.71 0 01-1.5.26A4.21 4.21 0 0118.48 7a2.7 2.7 0 01-1-.58 2.74 2.74 0 01-.71-1.11 5 5 0 01-.26-1.73 3.84 3.84 0 01.81-2.64A2.82 2.82 0 0119.54 0a2.82 2.82 0 012.24.94 3.55 3.55 0 01.82 2.42v.78zm2.62-1.6a1.81 1.81 0 00-.11-.36 1.2 1.2 0 00-.44-.53 1.44 1.44 0 00-1.45 0 1.19 1.19 0 00-.45.53 1.8 1.8 0 00-.11.36 2.69 2.69 0 000 .4h2.67a2.9 2.9 0 000-.4M27.25 7.1v-.65a2.32 2.32 0 01-.8.54 2.48 2.48 0 01-1 .19 2.24 2.24 0 01-1.66-.62 2.2 2.2 0 01-.56-.89 3.6 3.6 0 01-.15-1.1V.08h1.75v4.25a1.25 1.25 0 00.34 1 1.18 1.18 0 00.82.31 1.2 1.2 0 00.83-.31 1.25 1.25 0 00.34-1V.08H29v7zM33.72 2a1.38 1.38 0 00-.42-.32 1.23 1.23 0 00-.51-.09 1.09 1.09 0 00-.79.34 1.28 1.28 0 00-.34 1V7.1h-1.75v-7h1.71v.65a2.06 2.06 0 01.75-.54 2.45 2.45 0 011-.22 2.58 2.58 0 01.92.15 2 2 0 01.71.52zM40.09 5.22a2.47 2.47 0 01-.63 1.1 2.83 2.83 0 01-.91.62 3.12 3.12 0 01-1.27.24A3.07 3.07 0 0136 6.94a2.87 2.87 0 01-.9-.62 2.48 2.48 0 01-.63-1.1 6.47 6.47 0 01-.17-1.64A6.41 6.41 0 0134.49 2a2.48 2.48 0 01.63-1.1A2.7 2.7 0 0136 .24a3.49 3.49 0 012.54 0 2.85 2.85 0 01.91.62A2.47 2.47 0 0140.09 2a6.44 6.44 0 01.17 1.62 6.5 6.5 0 01-.17 1.64m-1.66-2.73a1.16 1.16 0 00-.33-.65 1.11 1.11 0 00-.82-.31 1.1 1.1 0 00-.81.31 1.24 1.24 0 00-.32.65 5.64 5.64 0 00-.08 1.05 5.63 5.63 0 00.08 1.05 1.32 1.32 0 00.32.66 1.1 1.1 0 00.81.31 1.11 1.11 0 00.82-.31 1.23 1.23 0 00.33-.66 6.12 6.12 0 00.07-1.05 6.13 6.13 0 00-.07-1.05M5.7 12.62h.55v.55H5.7zM7.93 13.12a1 1 0 01-.41.08 1.11 1.11 0 01-.38-.07.89.89 0 01-.32-.2 1 1 0 01-.23-.36 1.76 1.76 0 010-1.06 1 1 0 01.23-.36.87.87 0 01.32-.2 1.16 1.16 0 01.38-.06 1.07 1.07 0 01.41.07 1 1 0 01.33.24l-.31.3a.7.7 0 00-.2-.17.52.52 0 00-.23 0 .5.5 0 00-.42.2.55.55 0 00-.1.22A1.45 1.45 0 007 12a1.48 1.48 0 000 .33.56.56 0 00.1.22.5.5 0 00.42.2.52.52 0 00.23 0 .71.71 0 00.2-.17l.31.3a1 1 0 01-.33.25"/><path class="cls-2" d="M10.11 12.55a.87.87 0 01-.21.37.93.93 0 01-.29.2 1 1 0 01-.39.07 1 1 0 01-.39-.07.84.84 0 01-.29-.2.85.85 0 01-.21-.37 2.36 2.36 0 010-1 .83.83 0 01.21-.37.84.84 0 01.29-.2 1.08 1.08 0 01.78 0 .86.86 0 01.29.2.85.85 0 01.21.37 2.31 2.31 0 010 1m-.43-.9a.46.46 0 00-.12-.25.46.46 0 00-.34-.13.44.44 0 00-.33.13.46.46 0 00-.13.25 2.24 2.24 0 000 .75.46.46 0 00.13.25.45.45 0 00.33.13.45.45 0 00.34-.13.47.47 0 00.12-.25 2.27 2.27 0 000-.75M13.21 13.17v-1.39a.52.52 0 00-.12-.38.45.45 0 00-.33-.13.48.48 0 00-.33.13.46.46 0 00-.14.36v1.41h-.46v-1.39a.52.52 0 00-.12-.38.45.45 0 00-.33-.13.47.47 0 00-.34.13.5.5 0 00-.13.38v1.38h-.46V10.9h.45v.23a.73.73 0 01.27-.19.89.89 0 01.33-.06.72.72 0 01.65.33.88.88 0 01.71-.33 1 1 0 01.32.05.72.72 0 01.25.15.86.86 0 01.24.64v1.45zM3.8 9.89a1.76 1.76 0 101.76 1.76A1.76 1.76 0 003.8 9.89"/><path class="cls-3" d="M4.33 1.78H3.19a9.84 9.84 0 00-3 .69L0 2.51v2.23a7.85 7.85 0 013.28-1h.52a7.9 7.9 0 017.6 5.73 5.47 5.47 0 002.06 0 9.89 9.89 0 00-9.13-7.69"/><path class="cls-3" d="M9.42 9.2a6.13 6.13 0 00-5.09-3.66H3.19A6.09 6.09 0 000 6.86v3.28a4.09 4.09 0 017.32-.66 5.23 5.23 0 002.22 0l-.12-.28"/></g></g></svg>