<svg xmlns="http://www.w3.org/2000/svg" width="100" height="70" viewBox="0 0 100 70">
  <g>
    <path d="M17.457,25.052a12.018,12.018,0,0,1,8.626-3.08c5.9,0,10.473,3.387,10.473,9.417,0,4.884-3.432,8.8-5.94,11.441L24.5,49.211h11.75l-.441,4.533H17.545V48.728l9.462-10.474c1.8-1.937,3.256-4.049,3.256-6.865a4.484,4.484,0,0,0-4.62-4.357,10.018,10.018,0,0,0-6.469,2.6Z" fill="#fb8e00"/>
    <path d="M50.855,33.589c5.5,0,9.418,4.049,9.418,10.166,0,6.16-3.653,10.429-10.606,10.429-4.884,0-9.418-3.037-9.418-3.037l1.761-4.356A12.859,12.859,0,0,0,48.787,49.3c3.829,0,5.413-2.464,5.413-5.633,0-3.212-1.76-5.677-4.929-5.677a5.655,5.655,0,0,0-3.961,1.673l-3.872-.7.792-16.282h16.9l-.307,4.752H46.674l-.263,7A12.78,12.78,0,0,1,50.855,33.589Z" fill="#fb8e00"/>
    <path d="M62.359,25.882c0-2.77,1.667-4.976,4.514-4.976,3,0,4.668,2.155,4.668,4.925v.025a4.676,4.676,0,0,1-4.719,4.977C63.949,30.833,62.359,28.652,62.359,25.882Zm6.566-.026c0-1.616-.616-2.8-2.052-2.8s-2.052,1.206-2.052,2.821.59,2.77,2.026,2.77S68.925,27.447,68.925,25.856Zm10.85-4.924c-.026.051-.026.077-.052.1L68.207,39.6h-2.9L76.851,20.983a.081.081,0,0,0,.025-.051Zm-5.849,12.62c0-2.463,1.822-4.105,4.592-4.105,3.1,0,4.643,2.129,4.643,4.9,0,2.718-1.694,4.95-4.515,4.95C75.7,39.3,74,37.143,74,34.424V34.4A4.84,4.84,0,0,1,73.926,33.552Zm6.772.8c0-1.59-.616-2.744-2.2-2.744-1.617,0-1.848,1.23-1.848,2.821s.616,2.719,2.053,2.719S80.7,35.938,80.7,34.347Z" fill="#fb8e00"/>
  </g>
</svg>
