<svg xmlns="http://www.w3.org/2000/svg" width="100" height="70" viewBox="0 0 100 70">
  <g>
    <path d="M17.723,53.744l8.932-11.838a8.032,8.032,0,0,1-1.8.22c-6.293,0-10.694-3.96-10.694-9.857,0-6.337,5.193-10.3,11.837-10.3,6.865,0,11.97,3.916,11.97,10.341,0,3.96-2.024,6.865-3.784,9.286L25.336,53.744Zm8.493-16.062c3.872,0,5.368-2.2,5.368-5.677,0-3.344-1.848-5.413-5.28-5.413-3.565,0-5.633,2.157-5.633,5.545C20.671,35.613,22.387,37.682,26.216,37.682Z" fill="#fb8e00"/>
    <path d="M60.712,22.676v19.8h3.741l-.265,4.62H60.712v6.645H54.331V47.1H40.689v-4L52.571,22.676Zm-6.381,19.8V29.717L47.29,42.479Z" fill="#fb8e00"/>
    <path d="M65.967,25.882c0-2.77,1.667-4.976,4.514-4.976,3,0,4.668,2.155,4.668,4.925v.026a4.676,4.676,0,0,1-4.719,4.976C67.557,30.833,65.967,28.653,65.967,25.882Zm6.566-.025c0-1.616-.615-2.8-2.052-2.8s-2.051,1.206-2.051,2.821.59,2.771,2.026,2.771S72.533,27.447,72.533,25.857Zm10.85-4.925c-.026.051-.026.077-.051.1L71.815,39.6h-2.9L80.459,20.983a.079.079,0,0,0,.025-.051Zm-5.848,12.62c0-2.463,1.821-4.1,4.591-4.1,3.1,0,4.643,2.129,4.643,4.9,0,2.719-1.693,4.95-4.514,4.95-2.95,0-4.643-2.154-4.643-4.873V34.4A4.746,4.746,0,0,1,77.535,33.552Zm6.772.8c0-1.59-.616-2.744-2.206-2.744-1.617,0-1.847,1.23-1.847,2.821s.615,2.719,2.052,2.719S84.307,35.938,84.307,34.347Z" fill="#fb8e00"/>
  </g>
</svg>
