<svg xmlns="http://www.w3.org/2000/svg" width="100" height="70" viewBox="0 0 100 70">
  <g>
    <path d="M70.913,37.687a.926.926,0,0,0-1.072.757,20.029,20.029,0,0,1-.78,3.057.928.928,0,1,0,1.757.6,21.727,21.727,0,0,0,.851-3.341A.927.927,0,0,0,70.913,37.687Z" fill="#fb8e00"/>
    <path d="M69.074,43.993a.928.928,0,0,0-1.254.388,20.267,20.267,0,0,1-1.6,2.548.928.928,0,0,0,1.494,1.1,22.043,22.043,0,0,0,1.746-2.783A.929.929,0,0,0,69.074,43.993Z" fill="#fb8e00"/>
    <path d="M64.11,49.363a20.446,20.446,0,0,1-2.372,2,.928.928,0,1,0,1.083,1.507,22.157,22.157,0,0,0,2.589-2.18.928.928,0,1,0-1.3-1.324Z" fill="#fb8e00"/>
    <path d="M64.648,18.6a.928.928,0,1,0-1.237,1.384A20.164,20.164,0,0,1,70.134,35a.928.928,0,0,0,1.856,0A22.02,22.02,0,0,0,64.648,18.6Z" fill="#fb8e00"/>
    <path d="M50,7.5A27.5,27.5,0,1,0,77.5,35,27.531,27.531,0,0,0,50,7.5Zm0,51.163A23.663,23.663,0,1,1,73.663,35,23.69,23.69,0,0,1,50,58.663Z" fill="#fb8e00"/>
    <path d="M29.087,32.313a.862.862,0,0,0,.159.014.928.928,0,0,0,.913-.771,20.143,20.143,0,0,1,.779-3.057.928.928,0,1,0-1.756-.6,21.845,21.845,0,0,0-.852,3.341A.928.928,0,0,0,29.087,32.313Z" fill="#fb8e00"/>
    <path d="M30.926,26.007a.939.939,0,0,0,.432.107.928.928,0,0,0,.822-.5,20.2,20.2,0,0,1,1.6-2.548.928.928,0,0,0-1.5-1.1,22.15,22.15,0,0,0-1.745,2.783A.928.928,0,0,0,30.926,26.007Z" fill="#fb8e00"/>
    <path d="M35.24,20.9a.921.921,0,0,0,.65-.266,20.446,20.446,0,0,1,2.372-2,.928.928,0,1,0-1.083-1.507,22.167,22.167,0,0,0-2.59,2.18.928.928,0,0,0,.651,1.59Z" fill="#fb8e00"/>
    <path d="M29.866,35a.928.928,0,1,0-1.856,0,21.846,21.846,0,0,0,6.441,15.549.928.928,0,0,0,1.312-1.312A20,20,0,0,1,29.866,35Z" fill="#fb8e00"/>
    <path d="M58.968,38.857a.638.638,0,0,1,.184-.565L64.2,33.369a2.5,2.5,0,0,0-1.383-4.256L55.84,28.1a.64.64,0,0,1-.481-.35l-3.122-6.325A2.479,2.479,0,0,0,50,20.034h0a2.478,2.478,0,0,0-2.237,1.391l-3.122,6.324a.639.639,0,0,1-.481.35l-6.979,1.014A2.5,2.5,0,0,0,35.8,33.369l5.051,4.923a.637.637,0,0,1,.183.565L39.84,45.809a2.495,2.495,0,0,0,3.62,2.63L49.7,45.157a.637.637,0,0,1,.594,0l6.243,3.282a2.495,2.495,0,0,0,3.62-2.63Z" fill="#fb8e00"/>
  </g>
</svg>
