<svg xmlns="http://www.w3.org/2000/svg" width="100" height="70" viewBox="0 0 100 70">
  <path d="M69.247,15.848c-.014-.038-.045-.064-.061-.1a1.553,1.553,0,0,0-.16-.263,1.484,1.484,0,0,0-.2-.232c-.03-.027-.044-.065-.077-.089C65.651,12.741,61.366,10.5,51.1,10.5c-13.722,0-21.353,6.179-23.328,18.89,0,.013,0,.025,0,.038s-.01.024-.012.037c-.876,8.325-.8,25.261,5.752,29.766.029.02.063.027.094.045a1.082,1.082,0,0,0,.114.055,1.527,1.527,0,0,0,.658.169h0a1.528,1.528,0,0,0,.634-.154c.033-.015.064-.025.1-.042s.048-.017.072-.031c5.045-3.1,11.278-5.3,19.17-8.09,1.958-.692,4.018-1.419,6.185-2.2l.015-.01c.006,0,.013,0,.02,0C65.989,46.854,78.683,41.908,69.247,15.848Zm-21.178,9.9c.465,0,.808.4.917,1.069.95,6.26-1.716,8.907-4.561,10.67l-.8-9.727c.871-.489,1.552-.94,2.071-1.286l.256-.151A3.171,3.171,0,0,1,48.069,25.744ZM41.651,28.73l.817,9.87-.667.369L30.735,44.06A71.334,71.334,0,0,1,30.686,31.1,29.245,29.245,0,0,0,41.651,28.73ZM59.468,46.108c-2.15.779-4.195,1.5-6.139,2.187-7.584,2.677-13.656,4.836-18.781,7.806-1.6-1.652-2.72-4.891-3.386-8.867l11.975-5.509c.024-.011.038-.032.061-.044s.037,0,.054-.015l.827-.457c3.522-1.923,9.416-5.142,7.932-14.868l0-.006v-.008a4.026,4.026,0,0,0-3.94-3.646,6.094,6.094,0,0,0-3.69,1.007l-.263.156c-.015.008-.022.023-.036.031s-.03.009-.044.019a24.083,24.083,0,0,1-12.9,4.12C33.277,18.043,39.5,13.563,51.1,13.563c8.488,0,12.382,1.487,15.41,3.743C74.636,40.151,64.8,44.032,59.468,46.108Z" fill="#fb8e00"/>
</svg>
