<svg xmlns="http://www.w3.org/2000/svg" width="100" height="70" viewBox="0 0 100 70">
  <g>
    <path d="M24.491,37.727l3.394-3.394v4.842a1.1,1.1,0,0,0,2.2,0V32.254a.963.963,0,0,0-.011-.108L50,12.218,69.928,32.146a.963.963,0,0,0-.011.108v6.922a1.1,1.1,0,1,0,2.2,0V34.333l3.394,3.4a1.1,1.1,0,0,0,1.554-1.554l-9-9v-11.5a1.1,1.1,0,0,0-1.1-1.1H60.786a1.1,1.1,0,0,0-1.1,1.1V18.8l-8.2-8.2a2.15,2.15,0,0,0-2.97,0L22.937,36.173a1.1,1.1,0,1,0,1.554,1.554ZM61.885,16.768h3.977v8.023l-3.977-3.81Z" fill="#fb8e00" stroke="#fb8e00" stroke-miterlimit="10" stroke-width="1.667"/>
    <path d="M76.286,45.824c-1.734,0-2.558-.828-3.6-1.875a6.538,6.538,0,0,0-10.317,0c-1.044,1.048-1.868,1.875-3.6,1.875s-2.559-.828-3.6-1.875a6.54,6.54,0,0,0-10.319,0c-1.044,1.048-1.869,1.875-3.6,1.875s-2.56-.828-3.6-1.875a6.54,6.54,0,0,0-10.319,0c-1.044,1.047-1.87,1.875-3.6,1.875a1.1,1.1,0,1,0,0,2.2,6.783,6.783,0,0,0,5.16-2.52c1.044-1.048,1.869-1.875,3.6-1.875s2.559.827,3.6,1.874a6.541,6.541,0,0,0,10.319,0c1.044-1.048,1.869-1.875,3.6-1.875s2.559.827,3.6,1.875a6.54,6.54,0,0,0,10.318,0c1.043-1.047,1.867-1.874,3.6-1.874s2.558.827,3.6,1.874a6.779,6.779,0,0,0,5.159,2.521,1.1,1.1,0,1,0,0-2.2Z" fill="#fb8e00" stroke="#fb8e00" stroke-miterlimit="10" stroke-width="1.667"/>
    <path d="M76.286,51.813c-1.734,0-2.558-.827-3.6-1.875a6.539,6.539,0,0,0-10.317,0c-1.044,1.047-1.868,1.874-3.6,1.874s-2.559-.827-3.6-1.875a6.541,6.541,0,0,0-10.319,0c-1.044,1.047-1.869,1.874-3.6,1.874s-2.56-.827-3.6-1.875a6.542,6.542,0,0,0-10.319,0c-1.044,1.048-1.87,1.875-3.6,1.875a1.1,1.1,0,1,0,0,2.2,6.783,6.783,0,0,0,5.16-2.521c1.044-1.047,1.869-1.875,3.6-1.875s2.559.828,3.6,1.875a6.54,6.54,0,0,0,10.319,0c1.044-1.047,1.869-1.875,3.6-1.875s2.559.828,3.6,1.875a6.539,6.539,0,0,0,10.318,0c1.043-1.047,1.867-1.875,3.6-1.875s2.558.827,3.6,1.875a6.783,6.783,0,0,0,5.159,2.521,1.1,1.1,0,1,0,0-2.2Z" fill="#fb8e00" stroke="#fb8e00" stroke-miterlimit="10" stroke-width="1.667"/>
    <path d="M76.286,57.8c-1.734,0-2.558-.827-3.6-1.874a6.538,6.538,0,0,0-10.317,0c-1.044,1.047-1.868,1.874-3.6,1.874s-2.559-.827-3.6-1.874a6.54,6.54,0,0,0-10.319,0c-1.044,1.047-1.869,1.874-3.6,1.874s-2.56-.827-3.6-1.874a6.54,6.54,0,0,0-10.319,0c-1.044,1.047-1.87,1.874-3.6,1.874a1.1,1.1,0,0,0,0,2.2,6.783,6.783,0,0,0,5.16-2.521c1.044-1.047,1.869-1.874,3.6-1.874s2.559.827,3.6,1.874a6.54,6.54,0,0,0,10.319,0c1.044-1.047,1.869-1.874,3.6-1.874s2.559.827,3.6,1.874a6.539,6.539,0,0,0,10.318,0c1.043-1.047,1.867-1.874,3.6-1.874s2.558.827,3.6,1.874A6.783,6.783,0,0,0,76.286,60a1.1,1.1,0,0,0,0-2.2Z" fill="#fb8e00" stroke="#fb8e00" stroke-miterlimit="10" stroke-width="1.667"/>
  </g>
</svg>
