<svg xmlns="http://www.w3.org/2000/svg" width="100" height="70" viewBox="0 0 100 70">
  <g>
    <path d="M63.428,7.5H36.572a3.871,3.871,0,0,0-3.867,3.867V58.633A3.871,3.871,0,0,0,36.572,62.5H63.428A3.871,3.871,0,0,0,67.3,58.633V11.367A3.871,3.871,0,0,0,63.428,7.5ZM36.143,16.81H63.857V51.042H36.143Zm.429-5.872H63.428a.429.429,0,0,1,.429.429v3.151H36.143V11.367A.429.429,0,0,1,36.572,10.938ZM63.428,59.063H36.572a.43.43,0,0,1-.429-.43v-5.3H63.857v5.3A.43.43,0,0,1,63.428,59.063Z" fill="#fb8e00"/>
    <path d="M48.389,13.551h3.222a.573.573,0,1,0,0-1.145H48.389a.573.573,0,1,0,0,1.145Z" fill="#fb8e00"/>
    <path d="M50,54.032a1.916,1.916,0,1,0,1.916,1.915A1.918,1.918,0,0,0,50,54.032Z" fill="#fb8e00"/>
  </g>
</svg>
